<?xml version="1.0" encoding="UTF-8"?>
<!--Generator: Apple Native CoreSVG 341-->
<!DOCTYPE svg
PUBLIC "-//W3C//DTD SVG 1.1//EN"
       "http://www.w3.org/Graphics/SVG/1.1/DTD/svg11.dtd">
<svg version="1.1" xmlns="http://www.w3.org/2000/svg" xmlns:xlink="http://www.w3.org/1999/xlink" viewBox="0 0 129.343 130.438">
 <g>
  <rect height="130.438" opacity="0" width="129.343" x="0" y="0"/>
  <path d="M3.78516 79.3887L62.0566 79.3887C64.1982 79.3887 65.8418 77.7451 65.8418 75.6035C65.8418 73.5615 64.1484 71.8682 62.0566 71.8682L3.78516 71.8682C1.69336 71.8682 0 73.5615 0 75.6035C0 77.7451 1.64355 79.3887 3.78516 79.3887Z" fill="white" fill-opacity="0.85"/>
  <path d="M3.78516 56.8271L62.0566 56.8271C64.1982 56.8271 65.8418 55.1338 65.8418 53.042C65.8418 51 64.1484 49.3564 62.0566 49.3564L3.78516 49.3564C1.69336 49.3564 0 51 0 53.042C0 55.1338 1.64355 56.8271 3.78516 56.8271Z" fill="white" fill-opacity="0.85"/>
  <path d="M3.78516 34.3154L62.0566 34.3154C64.1484 34.3154 65.8418 32.6221 65.8418 30.5303C65.8418 28.4883 64.1484 26.7949 62.0566 26.7949L3.78516 26.7949C1.69336 26.7949 0 28.4883 0 30.5303C0 32.6221 1.69336 34.3154 3.78516 34.3154Z" fill="white" fill-opacity="0.85"/>
  <path d="M129.343 31.7256L129.343 7.96875C129.343 4.78125 126.753 2.68945 123.665 3.33691L91.4912 10.3594C87.7061 11.1562 85.6641 13.248 85.6641 16.585L85.8135 87.4072C86.0625 90.7441 84.4688 92.9854 81.4805 93.583L71.3203 95.7246C58.7197 98.3145 52.793 104.64 52.793 114.202C52.793 123.765 60.1143 130.438 70.5234 130.438C79.8369 130.438 93.6328 123.665 93.6328 105.287L93.6328 47.1152C93.6328 43.5293 94.3799 42.6826 97.6172 41.9355L126.105 35.71C128.098 35.2617 129.343 33.7676 129.343 31.7256Z" fill="white" fill-opacity="0.85"/>
 </g>
</svg>
